<mxfile host="app.diagrams.net" modified="2022-09-17T11:47:49.774Z" agent="5.0 (X11; Linux x86_64) AppleWebKit/537.36 (KHTML, like Gecko) Chrome/103.0.0.0 Safari/537.36" etag="eH3_Ni9GwsEBZry5a90m" version="20.3.2" type="github">
  <diagram name="Page-1" id="fbcf5db9-b524-4cd4-e4f3-379dc89c3999">
    <mxGraphModel dx="9980" dy="7710" grid="1" gridSize="10" guides="1" tooltips="1" connect="1" arrows="1" fold="1" page="1" pageScale="1" pageWidth="1200" pageHeight="1600" background="none" math="0" shadow="0">
      <root>
        <mxCell id="0" />
        <mxCell id="1" parent="0" />
        <mxCell id="2a0f93b5c73ef8e7-1" value="" style="line;strokeWidth=10;direction=south;html=1;fillColor=none;fontSize=13;fontColor=#000000;align=center;strokeColor=#AE4132;" parent="1" vertex="1">
          <mxGeometry x="615" y="-1350" width="10" height="2140" as="geometry" />
        </mxCell>
        <mxCell id="2a0f93b5c73ef8e7-2" value="" style="rounded=1;whiteSpace=wrap;html=1;strokeColor=none;strokeWidth=1;fillColor=#F2931E;fontSize=13;fontColor=#FFFFFF;align=center;gradientColor=none;gradientDirection=east;verticalAlign=top;shadow=1;" parent="1" vertex="1">
          <mxGeometry x="425" y="-1285" width="220" height="85" as="geometry" />
        </mxCell>
        <mxCell id="2a0f93b5c73ef8e7-4" value="" style="rounded=1;whiteSpace=wrap;html=1;strokeColor=none;strokeWidth=1;fillColor=#10739E;fontSize=13;fontColor=#FFFFFF;align=center;gradientColor=none;gradientDirection=east;verticalAlign=top;shadow=1;" parent="1" vertex="1">
          <mxGeometry x="595" y="-1170" width="220" height="85" as="geometry" />
        </mxCell>
        <mxCell id="2a0f93b5c73ef8e7-11" value="5" style="text;html=1;strokeColor=none;fillColor=none;align=center;verticalAlign=middle;whiteSpace=wrap;fontSize=30;fontColor=#FFFFFF;" parent="1" vertex="1">
          <mxGeometry x="435" y="-797" width="40" height="20" as="geometry" />
        </mxCell>
        <mxCell id="2a0f93b5c73ef8e7-18" value="&lt;h1&gt;&lt;span style=&quot;font-weight: normal;&quot;&gt;&lt;font style=&quot;font-size: 19px;&quot;&gt;2、打开popup.html执行lilico钱包解锁&lt;/font&gt;&lt;/span&gt;&lt;/h1&gt;" style="text;html=1;spacing=5;spacingTop=-20;whiteSpace=wrap;overflow=hidden;strokeColor=none;strokeWidth=4;fillColor=none;gradientColor=#007FFF;fontSize=9;fontColor=#FFFFFF;align=left;" parent="1" vertex="1">
          <mxGeometry x="445" y="-1270" width="190" height="66" as="geometry" />
        </mxCell>
        <mxCell id="kOKYkOkg-JbvyOHVfU03-5" value="&lt;font style=&quot;font-size: 32px;&quot;&gt;2&lt;/font&gt;" style="text;html=1;strokeColor=none;fillColor=none;align=center;verticalAlign=middle;whiteSpace=wrap;rounded=0;labelBackgroundColor=none;fontColor=#fff;" vertex="1" parent="1">
          <mxGeometry x="435" y="-1415" width="60" height="30" as="geometry" />
        </mxCell>
        <mxCell id="kOKYkOkg-JbvyOHVfU03-14" value="&lt;h1&gt;&lt;span style=&quot;font-weight: normal;&quot;&gt;&lt;font style=&quot;font-size: 19px;&quot;&gt;3、blocto钱包登录&lt;/font&gt;&lt;/span&gt;&lt;/h1&gt;" style="text;html=1;spacing=5;spacingTop=-20;whiteSpace=wrap;overflow=hidden;strokeColor=none;strokeWidth=4;fillColor=none;gradientColor=#007FFF;fontSize=9;fontColor=#FFFFFF;align=left;" vertex="1" parent="1">
          <mxGeometry x="610" y="-1140" width="190" height="56" as="geometry" />
        </mxCell>
        <mxCell id="kOKYkOkg-JbvyOHVfU03-17" value="" style="rounded=1;whiteSpace=wrap;html=1;strokeColor=none;strokeWidth=1;fillColor=#10739E;fontSize=13;fontColor=#FFFFFF;align=center;gradientColor=none;gradientDirection=east;verticalAlign=top;shadow=1;" vertex="1" parent="1">
          <mxGeometry x="595" y="-1060" width="220" height="85" as="geometry" />
        </mxCell>
        <mxCell id="kOKYkOkg-JbvyOHVfU03-18" value="&lt;h1&gt;&lt;span style=&quot;font-weight: normal;&quot;&gt;&lt;font style=&quot;font-size: 19px;&quot;&gt;4、Create new collection&lt;/font&gt;&lt;/span&gt;&lt;/h1&gt;" style="text;html=1;spacing=5;spacingTop=-20;whiteSpace=wrap;overflow=hidden;strokeColor=none;strokeWidth=4;fillColor=none;gradientColor=#007FFF;fontSize=9;fontColor=#FFFFFF;align=left;" vertex="1" parent="1">
          <mxGeometry x="610" y="-1040" width="190" height="66" as="geometry" />
        </mxCell>
        <mxCell id="kOKYkOkg-JbvyOHVfU03-19" value="" style="rounded=1;whiteSpace=wrap;html=1;strokeColor=none;strokeWidth=1;fillColor=#10739E;fontSize=13;fontColor=#FFFFFF;align=center;gradientColor=none;gradientDirection=east;verticalAlign=top;shadow=1;" vertex="1" parent="1">
          <mxGeometry x="595" y="-940" width="220" height="85" as="geometry" />
        </mxCell>
        <mxCell id="kOKYkOkg-JbvyOHVfU03-20" value="&lt;h1&gt;&lt;span style=&quot;font-weight: normal;&quot;&gt;&lt;font style=&quot;font-size: 19px;&quot;&gt;5、Mint a nft of created collection&lt;/font&gt;&lt;/span&gt;&lt;/h1&gt;" style="text;html=1;spacing=5;spacingTop=-20;whiteSpace=wrap;overflow=hidden;strokeColor=none;strokeWidth=4;fillColor=none;gradientColor=#007FFF;fontSize=9;fontColor=#FFFFFF;align=left;" vertex="1" parent="1">
          <mxGeometry x="610" y="-920" width="190" height="66" as="geometry" />
        </mxCell>
        <mxCell id="kOKYkOkg-JbvyOHVfU03-21" value="" style="rounded=1;whiteSpace=wrap;html=1;strokeColor=none;strokeWidth=1;fillColor=#10739E;fontSize=13;fontColor=#FFFFFF;align=center;gradientColor=none;gradientDirection=east;verticalAlign=top;shadow=1;" vertex="1" parent="1">
          <mxGeometry x="595" y="-830" width="220" height="85" as="geometry" />
        </mxCell>
        <mxCell id="kOKYkOkg-JbvyOHVfU03-22" value="&lt;h1&gt;&lt;span style=&quot;font-weight: normal;&quot;&gt;&lt;font style=&quot;font-size: 19px;&quot;&gt;6、List this nft&lt;/font&gt;&lt;/span&gt;&lt;/h1&gt;" style="text;html=1;spacing=5;spacingTop=-20;whiteSpace=wrap;overflow=hidden;strokeColor=none;strokeWidth=4;fillColor=none;gradientColor=#007FFF;fontSize=9;fontColor=#FFFFFF;align=left;" vertex="1" parent="1">
          <mxGeometry x="610" y="-800" width="190" height="56" as="geometry" />
        </mxCell>
        <mxCell id="kOKYkOkg-JbvyOHVfU03-23" value="" style="rounded=1;whiteSpace=wrap;html=1;strokeColor=none;strokeWidth=1;fillColor=#10739E;fontSize=13;fontColor=#FFFFFF;align=center;gradientColor=none;gradientDirection=east;verticalAlign=top;shadow=1;" vertex="1" parent="1">
          <mxGeometry x="595" y="-710" width="220" height="85" as="geometry" />
        </mxCell>
        <mxCell id="kOKYkOkg-JbvyOHVfU03-24" value="&lt;h1&gt;&lt;span style=&quot;font-size: 19px; font-weight: 400;&quot;&gt;7、Cancel the list&lt;/span&gt;&lt;/h1&gt;" style="text;html=1;spacing=5;spacingTop=-20;whiteSpace=wrap;overflow=hidden;strokeColor=none;strokeWidth=4;fillColor=none;gradientColor=#007FFF;fontSize=9;fontColor=#FFFFFF;align=left;" vertex="1" parent="1">
          <mxGeometry x="610" y="-680" width="190" height="56" as="geometry" />
        </mxCell>
        <mxCell id="kOKYkOkg-JbvyOHVfU03-25" value="" style="rounded=1;whiteSpace=wrap;html=1;strokeColor=none;strokeWidth=1;fillColor=#10739E;fontSize=13;fontColor=#FFFFFF;align=center;gradientColor=none;gradientDirection=east;verticalAlign=top;shadow=1;" vertex="1" parent="1">
          <mxGeometry x="595" y="-590" width="220" height="85" as="geometry" />
        </mxCell>
        <mxCell id="kOKYkOkg-JbvyOHVfU03-26" value="&lt;h1&gt;&lt;span style=&quot;font-size: 19px; font-weight: 400;&quot;&gt;8、Relist this nft&lt;/span&gt;&lt;/h1&gt;" style="text;html=1;spacing=5;spacingTop=-20;whiteSpace=wrap;overflow=hidden;strokeColor=none;strokeWidth=4;fillColor=none;gradientColor=#007FFF;fontSize=9;fontColor=#FFFFFF;align=left;" vertex="1" parent="1">
          <mxGeometry x="610" y="-560" width="190" height="56" as="geometry" />
        </mxCell>
        <mxCell id="kOKYkOkg-JbvyOHVfU03-27" value="" style="rounded=1;whiteSpace=wrap;html=1;strokeColor=none;strokeWidth=1;fillColor=#F2931E;fontSize=13;fontColor=#FFFFFF;align=center;gradientColor=none;gradientDirection=east;verticalAlign=top;shadow=1;" vertex="1" parent="1">
          <mxGeometry x="425" y="-464" width="220" height="85" as="geometry" />
        </mxCell>
        <mxCell id="kOKYkOkg-JbvyOHVfU03-28" value="&lt;h1&gt;&lt;span style=&quot;font-weight: normal;&quot;&gt;&lt;font style=&quot;font-size: 19px;&quot;&gt;9、退出blocto登录，登录lilico&lt;/font&gt;&lt;/span&gt;&lt;/h1&gt;" style="text;html=1;spacing=5;spacingTop=-20;whiteSpace=wrap;overflow=hidden;strokeColor=none;strokeWidth=4;fillColor=none;gradientColor=#007FFF;fontSize=9;fontColor=#FFFFFF;align=left;" vertex="1" parent="1">
          <mxGeometry x="445" y="-444" width="190" height="61" as="geometry" />
        </mxCell>
        <mxCell id="kOKYkOkg-JbvyOHVfU03-29" value="" style="rounded=1;whiteSpace=wrap;html=1;strokeColor=none;strokeWidth=1;fillColor=#F2931E;fontSize=13;fontColor=#FFFFFF;align=center;gradientColor=none;gradientDirection=east;verticalAlign=top;shadow=1;" vertex="1" parent="1">
          <mxGeometry x="425" y="-340" width="220" height="85" as="geometry" />
        </mxCell>
        <mxCell id="kOKYkOkg-JbvyOHVfU03-30" value="&lt;h1&gt;&lt;span style=&quot;font-weight: normal;&quot;&gt;&lt;font style=&quot;font-size: 19px;&quot;&gt;10、购买（Purchase the list）&lt;/font&gt;&lt;/span&gt;&lt;/h1&gt;" style="text;html=1;spacing=5;spacingTop=-20;whiteSpace=wrap;overflow=hidden;strokeColor=none;strokeWidth=4;fillColor=none;gradientColor=#007FFF;fontSize=9;fontColor=#FFFFFF;align=left;" vertex="1" parent="1">
          <mxGeometry x="445" y="-320" width="190" height="61" as="geometry" />
        </mxCell>
        <mxCell id="kOKYkOkg-JbvyOHVfU03-31" value="" style="rounded=1;whiteSpace=wrap;html=1;strokeColor=none;strokeWidth=1;fillColor=#10739E;fontSize=13;fontColor=#FFFFFF;align=center;gradientColor=none;gradientDirection=east;verticalAlign=top;shadow=1;" vertex="1" parent="1">
          <mxGeometry x="595" y="-220" width="220" height="85" as="geometry" />
        </mxCell>
        <mxCell id="kOKYkOkg-JbvyOHVfU03-32" value="&lt;h1&gt;&lt;span style=&quot;font-size: 19px; font-weight: 400;&quot;&gt;11、退出lilico登录，登录blocto&lt;/span&gt;&lt;/h1&gt;" style="text;html=1;spacing=5;spacingTop=-20;whiteSpace=wrap;overflow=hidden;strokeColor=none;strokeWidth=4;fillColor=none;gradientColor=#007FFF;fontSize=9;fontColor=#FFFFFF;align=left;" vertex="1" parent="1">
          <mxGeometry x="615" y="-200" width="190" height="56" as="geometry" />
        </mxCell>
        <mxCell id="kOKYkOkg-JbvyOHVfU03-33" value="" style="rounded=1;whiteSpace=wrap;html=1;strokeColor=none;strokeWidth=1;fillColor=#10739E;fontSize=13;fontColor=#FFFFFF;align=center;gradientColor=none;gradientDirection=east;verticalAlign=top;shadow=1;" vertex="1" parent="1">
          <mxGeometry x="595" y="-100" width="220" height="85" as="geometry" />
        </mxCell>
        <mxCell id="kOKYkOkg-JbvyOHVfU03-34" value="&lt;h1&gt;&lt;span style=&quot;font-size: 19px; font-weight: 400;&quot;&gt;12、Make offer&lt;/span&gt;&lt;/h1&gt;" style="text;html=1;spacing=5;spacingTop=-20;whiteSpace=wrap;overflow=hidden;strokeColor=none;strokeWidth=4;fillColor=none;gradientColor=#007FFF;fontSize=9;fontColor=#FFFFFF;align=left;" vertex="1" parent="1">
          <mxGeometry x="615" y="-71" width="190" height="56" as="geometry" />
        </mxCell>
        <mxCell id="kOKYkOkg-JbvyOHVfU03-35" value="" style="rounded=1;whiteSpace=wrap;html=1;strokeColor=none;strokeWidth=1;fillColor=#10739E;fontSize=13;fontColor=#FFFFFF;align=center;gradientColor=none;gradientDirection=east;verticalAlign=top;shadow=1;" vertex="1" parent="1">
          <mxGeometry x="595" y="30" width="220" height="85" as="geometry" />
        </mxCell>
        <mxCell id="kOKYkOkg-JbvyOHVfU03-36" value="&lt;h1&gt;&lt;span style=&quot;font-size: 19px; font-weight: 400;&quot;&gt;13、Cancel offer&lt;/span&gt;&lt;/h1&gt;" style="text;html=1;spacing=5;spacingTop=-20;whiteSpace=wrap;overflow=hidden;strokeColor=none;strokeWidth=4;fillColor=none;gradientColor=#007FFF;fontSize=9;fontColor=#FFFFFF;align=left;" vertex="1" parent="1">
          <mxGeometry x="615" y="59" width="190" height="56" as="geometry" />
        </mxCell>
        <mxCell id="kOKYkOkg-JbvyOHVfU03-37" value="" style="rounded=1;whiteSpace=wrap;html=1;strokeColor=none;strokeWidth=1;fillColor=#10739E;fontSize=13;fontColor=#FFFFFF;align=center;gradientColor=none;gradientDirection=east;verticalAlign=top;shadow=1;" vertex="1" parent="1">
          <mxGeometry x="595" y="170" width="220" height="85" as="geometry" />
        </mxCell>
        <mxCell id="kOKYkOkg-JbvyOHVfU03-38" value="&lt;h1&gt;&lt;span style=&quot;font-size: 19px; font-weight: 400;&quot;&gt;14、Remake offer&lt;/span&gt;&lt;/h1&gt;" style="text;html=1;spacing=5;spacingTop=-20;whiteSpace=wrap;overflow=hidden;strokeColor=none;strokeWidth=4;fillColor=none;gradientColor=#007FFF;fontSize=9;fontColor=#FFFFFF;align=left;" vertex="1" parent="1">
          <mxGeometry x="615" y="199" width="190" height="56" as="geometry" />
        </mxCell>
        <mxCell id="kOKYkOkg-JbvyOHVfU03-39" value="" style="rounded=1;whiteSpace=wrap;html=1;strokeColor=none;strokeWidth=1;fillColor=#F2931E;fontSize=13;fontColor=#FFFFFF;align=center;gradientColor=none;gradientDirection=east;verticalAlign=top;shadow=1;" vertex="1" parent="1">
          <mxGeometry x="425" y="310" width="220" height="85" as="geometry" />
        </mxCell>
        <mxCell id="kOKYkOkg-JbvyOHVfU03-40" value="&lt;h1&gt;&lt;span style=&quot;font-weight: normal;&quot;&gt;&lt;font style=&quot;font-size: 19px;&quot;&gt;15、退出blocto登录，登录lilico&lt;/font&gt;&lt;/span&gt;&lt;/h1&gt;" style="text;html=1;spacing=5;spacingTop=-20;whiteSpace=wrap;overflow=hidden;strokeColor=none;strokeWidth=4;fillColor=none;gradientColor=#007FFF;fontSize=9;fontColor=#FFFFFF;align=left;" vertex="1" parent="1">
          <mxGeometry x="445" y="330" width="190" height="61" as="geometry" />
        </mxCell>
        <mxCell id="kOKYkOkg-JbvyOHVfU03-41" value="" style="rounded=1;whiteSpace=wrap;html=1;strokeColor=none;strokeWidth=1;fillColor=#F2931E;fontSize=13;fontColor=#FFFFFF;align=center;gradientColor=none;gradientDirection=east;verticalAlign=top;shadow=1;" vertex="1" parent="1">
          <mxGeometry x="425" y="450" width="220" height="85" as="geometry" />
        </mxCell>
        <mxCell id="kOKYkOkg-JbvyOHVfU03-42" value="&lt;h1&gt;&lt;span style=&quot;font-weight: normal;&quot;&gt;&lt;font style=&quot;font-size: 19px;&quot;&gt;16、Accpet offer&lt;/font&gt;&lt;/span&gt;&lt;/h1&gt;" style="text;html=1;spacing=5;spacingTop=-20;whiteSpace=wrap;overflow=hidden;strokeColor=none;strokeWidth=4;fillColor=none;gradientColor=#007FFF;fontSize=9;fontColor=#FFFFFF;align=left;" vertex="1" parent="1">
          <mxGeometry x="445" y="480" width="190" height="61" as="geometry" />
        </mxCell>
        <mxCell id="kOKYkOkg-JbvyOHVfU03-43" value="" style="rounded=1;whiteSpace=wrap;html=1;strokeColor=none;strokeWidth=1;fillColor=#10739E;fontSize=13;fontColor=#FFFFFF;align=center;gradientColor=none;gradientDirection=east;verticalAlign=top;shadow=1;" vertex="1" parent="1">
          <mxGeometry x="600" y="590" width="220" height="85" as="geometry" />
        </mxCell>
        <mxCell id="kOKYkOkg-JbvyOHVfU03-44" value="&lt;h1&gt;&lt;span style=&quot;font-size: 19px; font-weight: 400;&quot;&gt;17、退出lilico登录，登录blocto&lt;/span&gt;&lt;/h1&gt;" style="text;html=1;spacing=5;spacingTop=-20;whiteSpace=wrap;overflow=hidden;strokeColor=none;strokeWidth=4;fillColor=none;gradientColor=#007FFF;fontSize=9;fontColor=#FFFFFF;align=left;" vertex="1" parent="1">
          <mxGeometry x="620" y="610" width="190" height="56" as="geometry" />
        </mxCell>
        <mxCell id="kOKYkOkg-JbvyOHVfU03-45" value="" style="rounded=1;whiteSpace=wrap;html=1;strokeColor=none;strokeWidth=1;fillColor=#10739E;fontSize=13;fontColor=#FFFFFF;align=center;gradientColor=none;gradientDirection=east;verticalAlign=top;shadow=1;" vertex="1" parent="1">
          <mxGeometry x="600" y="730" width="220" height="85" as="geometry" />
        </mxCell>
        <mxCell id="kOKYkOkg-JbvyOHVfU03-46" value="&lt;h1&gt;&lt;span style=&quot;font-size: 19px; font-weight: 400;&quot;&gt;18、Transfer nft to lilico address&lt;/span&gt;&lt;/h1&gt;" style="text;html=1;spacing=5;spacingTop=-20;whiteSpace=wrap;overflow=hidden;strokeColor=none;strokeWidth=4;fillColor=none;gradientColor=#007FFF;fontSize=9;fontColor=#FFFFFF;align=left;" vertex="1" parent="1">
          <mxGeometry x="620" y="750" width="190" height="56" as="geometry" />
        </mxCell>
        <mxCell id="kOKYkOkg-JbvyOHVfU03-47" value="&lt;span style=&quot;text-align: left;&quot;&gt;1、打开浏览器，访问prod-mainnet，清除localstorage，重置登录状态&lt;/span&gt;" style="rounded=1;whiteSpace=wrap;html=1;labelBackgroundColor=none;fontSize=19;fillColor=#6d8764;strokeColor=#3A5431;fontColor=#ffffff;" vertex="1" parent="1">
          <mxGeometry x="420" y="-1460" width="400" height="105" as="geometry" />
        </mxCell>
      </root>
    </mxGraphModel>
  </diagram>
</mxfile>
